<svg width="24" height="24" viewBox="0 0 24 24" fill="none" xmlns="http://www.w3.org/2000/svg">
<g clip-path="url(#clip0_8493_214894)">
<path d="M21.2914 18.9337C21.7992 19.5075 22.0204 19.9357 21.9987 20.3182C21.9769 20.7007 21.6987 20.9647 21.3559 21.1747C20.6689 21.5955 19.6339 21.9142 19.0107 22.6837L18.8899 22.5817L19.0099 22.6845C18.3559 23.4757 17.5467 23.9325 16.7854 23.9932C16.0249 24.054 15.3117 23.697 14.9262 22.9132C14.8755 22.8137 14.8369 22.7085 14.8114 22.5997C13.8214 22.656 12.9604 22.35 12.2712 22.407C11.2557 22.4632 10.6212 22.7122 10.0437 22.7152C9.81943 23.2147 9.38518 23.5387 8.84893 23.6632C8.11018 23.835 7.18393 23.6625 6.27043 23.1765C5.41693 22.7167 4.33393 22.758 3.53368 22.5885C3.13393 22.5037 2.78068 22.3537 2.60818 22.0125C2.43643 21.6727 2.46793 21.204 2.71168 20.526C2.78818 20.2845 2.73043 19.9282 2.67418 19.5517C2.64226 19.3686 2.62396 19.1833 2.61943 18.9975C2.61943 18.7972 2.65093 18.5992 2.74918 18.4132C2.95393 18.0127 3.29218 17.847 3.60043 17.7345C3.90868 17.622 4.18918 17.547 4.38568 17.3467C4.59568 17.121 4.78543 16.7842 5.04043 16.5068C5.07493 16.4692 5.11093 16.4332 5.14843 16.3995C5.02843 15.591 5.15893 14.7375 5.43343 13.9005C6.01393 12.1252 7.24093 10.4205 8.11093 9.3675C8.85343 8.29575 8.79868 7.4715 8.87518 6.375C8.93743 4.8765 8.10418 0.36 12.2712 0.0195C12.4362 0.006 12.5937 0 12.7459 0C16.4749 0.00525 16.2649 4.00125 16.2417 6.15525C16.2267 7.5675 16.9947 8.523 17.7792 9.53025C18.4804 10.3725 19.3992 11.6047 19.9242 13.0185C20.3532 14.1705 20.5197 15.4455 20.0952 16.7257C20.2342 16.7787 20.3621 16.857 20.4724 16.9567C20.7777 17.2215 20.8729 17.6295 20.9584 18.0075C21.0439 18.3862 21.1234 18.7417 21.2914 18.9337ZM20.4994 20.2222C20.5092 20.0497 20.4019 19.7797 20.0689 19.3785C19.8957 19.167 19.8492 18.8707 19.7914 18.5985C19.7337 18.327 19.6669 18.084 19.5259 17.9535C19.3437 17.781 19.1659 17.7682 18.9529 17.7735L18.8112 17.7795C18.5689 18.0817 17.9952 18.4515 17.5969 18.3382C17.2332 18.2385 17.0269 17.7787 17.0022 17.3287C16.9916 17.3343 16.9811 17.3401 16.9707 17.346C16.7457 17.4795 16.6182 17.7165 16.5379 18.0675C16.4569 18.4185 16.4299 18.873 16.4059 19.3942C16.3834 19.8 16.2109 20.3002 16.0917 20.7862C15.9724 21.2737 15.9132 21.7342 16.0564 22.029C16.2852 22.5262 16.6729 22.7287 17.1214 22.6897C17.5714 22.6515 18.0814 22.3552 18.4999 21.8152C18.9822 21.183 19.7367 20.9407 20.1619 20.6625C20.3749 20.523 20.4904 20.3947 20.4994 20.2222ZM8.84143 21.4095C8.87143 21.1005 8.63818 20.697 8.33593 20.2957C8.03443 19.8937 7.67818 19.4992 7.50868 19.1407L6.87493 17.9655C6.65518 17.6625 6.42718 17.4765 6.16543 17.436C6.12697 17.43 6.0881 17.427 6.04918 17.427C5.85193 17.4285 5.72143 17.5222 5.59093 17.664C5.43568 17.832 5.30368 18.069 5.12593 18.2595C4.93543 18.4545 4.69393 18.5122 4.49068 18.5865C4.28743 18.6607 4.12318 18.7387 4.01068 18.9592C3.92368 19.1242 3.94318 19.3605 3.98143 19.62C4.02118 19.8802 4.08043 20.157 3.99868 20.4142C3.83593 20.8665 3.83743 21.132 3.91393 21.2842C3.99043 21.4357 4.15768 21.5182 4.41418 21.5722C4.92718 21.681 5.72593 21.645 6.39793 22.0072C7.00543 22.3297 7.61293 22.4332 8.06143 22.3297C8.50993 22.2247 8.80168 21.9382 8.84143 21.4095ZM13.8769 6.5625C13.8199 6.4485 13.7029 6.33975 13.5042 6.25725C13.0894 6.07725 12.9102 6.06375 12.6792 5.9115C12.3042 5.6655 11.9937 5.57925 11.7357 5.58075C11.6007 5.58075 11.4799 5.6055 11.3719 5.64375C11.0569 5.75325 10.8484 5.98275 10.7179 6.10875C10.6917 6.13425 10.6587 6.15675 10.5784 6.216C10.4982 6.276 10.3767 6.366 10.2034 6.4995C10.0482 6.61725 9.99793 6.771 10.0519 6.95025C10.1044 7.13025 10.2754 7.338 10.5874 7.51725C10.7824 7.6335 10.9144 7.7895 11.0659 7.91325C11.1424 7.9755 11.2219 8.031 11.3179 8.07225C11.4139 8.11425 11.5264 8.14275 11.6667 8.151C11.9967 8.1705 12.2397 8.07 12.4542 7.94475C12.6687 7.82025 12.8502 7.668 13.0587 7.59975C13.4877 7.46325 13.7922 7.1895 13.8882 6.93C13.9125 6.87145 13.924 6.8084 13.9221 6.74504C13.9201 6.68168 13.9048 6.61946 13.8769 6.5625ZM19.5987 16.6312C19.7794 16.0327 19.6159 15.1987 18.6252 14.6242C18.2502 14.4067 17.2789 14.2447 17.1252 14.2492C16.8822 12.885 15.6747 12.282 15.3927 11.7495C14.8602 10.7452 14.7844 8.688 14.4289 7.263C14.2219 7.563 13.8589 7.82025 13.3999 7.96575C13.1832 8.03775 12.9552 8.2215 12.6694 8.388C12.4062 8.541 12.0904 8.67525 11.6854 8.67525C11.6494 8.67525 11.6119 8.6745 11.5744 8.67225C11.2575 8.65775 10.9545 8.53792 10.7134 8.33175C10.5057 8.16225 10.3452 7.97475 10.1307 7.84725C10.0579 7.8045 9.11293 11.8297 8.29693 13.0177C7.63918 13.98 7.40218 14.781 7.37518 15.75C7.37518 16.014 7.37518 16.5067 7.81018 16.8067C8.65768 17.3347 9.23368 17.8635 9.57418 18.3315C9.91468 18.8002 10.0212 19.2105 9.91543 19.5015C9.88802 19.5746 9.84612 19.6415 9.79225 19.6981C9.73838 19.7547 9.67365 19.7998 9.60193 19.8307C9.45842 19.8919 9.30338 19.9213 9.14743 19.917C9.23818 20.0332 9.45493 20.25 9.91543 20.625C10.3752 21 14.8752 22.125 15.4039 19.1475C15.4392 18.435 15.4759 17.7997 15.6049 17.2755C15.7339 16.7497 15.9649 16.3215 16.3894 16.0852C16.4569 16.0477 16.5252 16.0177 16.5927 15.9937C16.5979 15.9487 16.6039 15.9052 16.6114 15.8625C16.7329 15.0427 17.4529 15.003 18.3567 15.4065C19.2274 15.8077 19.5544 16.1572 19.4224 16.632C19.4802 16.6305 19.5387 16.6297 19.5987 16.632V16.6312ZM14.2774 5.61C14.3851 5.36132 14.4364 5.09185 14.4274 4.821C14.4257 4.56412 14.3694 4.31054 14.2624 4.077C14.1703 3.85604 14.0206 3.66386 13.8289 3.5205C13.6645 3.39059 13.461 3.32003 13.2514 3.32025H13.2409C13.0249 3.3225 12.8419 3.38775 12.6559 3.531C12.4676 3.67896 12.3217 3.87404 12.2329 4.0965C12.1276 4.3385 12.0766 4.60066 12.0837 4.8645V4.88625C12.0852 4.96575 12.0912 5.0415 12.1009 5.115C12.2682 5.1555 12.5104 5.22525 12.6994 5.32125C12.6862 5.24197 12.6807 5.16159 12.6829 5.08125L12.6837 5.064C12.6889 4.908 12.7152 4.7775 12.7692 4.6455C12.8116 4.52953 12.8823 4.42593 12.9747 4.344C13.0478 4.27577 13.1447 4.23889 13.2447 4.24125C13.3429 4.24425 13.4247 4.28175 13.5072 4.36275C13.5935 4.45125 13.6566 4.55971 13.6909 4.6785C13.7329 4.80825 13.7524 4.935 13.7494 5.0835C13.7494 5.091 13.7472 5.09625 13.7472 5.10225C13.7427 5.25675 13.7164 5.38725 13.6624 5.51925C13.6264 5.60775 13.5312 5.6775 13.4824 5.73675C13.5499 5.76075 13.6144 5.7825 13.6977 5.81475C13.8216 5.86269 13.9442 5.91422 14.0652 5.96925C14.1484 5.86725 14.2174 5.75025 14.2774 5.61ZM11.1604 5.21775C11.1852 5.20875 11.2099 5.20125 11.2354 5.19375C11.2429 5.10825 11.2429 5.01975 11.2377 4.92375C11.2291 4.71598 11.1823 4.51157 11.0997 4.32075C11.0338 4.15417 10.9273 4.0067 10.7899 3.89175C10.6811 3.79501 10.5387 3.74468 10.3932 3.7515C10.2507 3.759 10.1322 3.819 10.0144 3.9375C9.89743 4.05525 9.81643 4.2 9.75568 4.39875C9.69536 4.59834 9.67173 4.80722 9.68593 5.01525C9.69868 5.2395 9.74293 5.42925 9.82468 5.61825C9.89368 5.77875 9.97318 5.8995 10.0744 5.99625L10.1944 5.90625C10.2469 5.868 10.2904 5.832 10.3534 5.78175C10.2723 5.71689 10.2101 5.6314 10.1734 5.53425C10.1334 5.4374 10.1086 5.33493 10.0999 5.2305L10.0984 5.21775C10.0877 5.10908 10.0948 4.99939 10.1194 4.893C10.1363 4.80375 10.1736 4.71958 10.2282 4.647C10.2792 4.58325 10.3332 4.551 10.3992 4.545C10.4332 4.54318 10.4671 4.54851 10.4989 4.56066C10.5307 4.5728 10.5596 4.59149 10.5837 4.6155C10.6504 4.67731 10.7018 4.75384 10.7337 4.839C10.7727 4.935 10.7959 5.0295 10.8072 5.14275V5.1555C10.8162 5.241 10.8147 5.31675 10.8042 5.39175C10.9107 5.3205 11.0217 5.2665 11.1604 5.21775Z" fill="black" fill-opacity="0.4"/>
</g>
<defs>
<clipPath id="clip0_8493_214894">
<rect width="19.5" height="24" fill="white" transform="translate(2.5)"/>
</clipPath>
</defs>
</svg>
