<svg width="24" height="24" viewBox="0 0 24 24" fill="none" xmlns="http://www.w3.org/2000/svg">
<g clip-path="url(#clip0_8493_206717)">
<path fill-rule="evenodd" clip-rule="evenodd" d="M14.7108 18.1229C16.5203 17.6693 17.8843 16.7093 18.7705 15.2357C18.8184 15.1562 18.8507 15.0676 18.8656 14.9751C18.8805 14.8826 18.8777 14.7879 18.8574 14.6965C18.8371 14.6051 18.7997 14.5188 18.7472 14.4424C18.6948 14.366 18.6284 14.3011 18.5519 14.2514C18.4753 14.2017 18.3901 14.1682 18.301 14.1527C18.212 14.1372 18.1209 14.1401 18.0329 14.1611C17.9449 14.1822 17.8618 14.2211 17.7883 14.2756C17.7148 14.3301 17.6524 14.399 17.6045 14.4786C16.9431 15.5779 15.9236 16.3214 14.519 16.7014C14.4043 15.6069 14.3401 14.5073 14.3265 13.4064C14.3209 13.0316 14.1738 12.6742 13.9168 12.4111C13.6598 12.148 13.3136 12.0003 12.9529 12H10.9688C11.395 8.355 13.0436 4.26071 13.9243 2H20.9375C21.4845 2 22.0091 2.22576 22.3959 2.62763C22.7827 3.02949 23 3.57454 23 4.14286V19.8571C23 20.4255 22.7827 20.9705 22.3959 21.3724C22.0091 21.7742 21.4845 22 20.9375 22H15.7881C15.3151 20.91 14.9556 19.6171 14.7108 18.1229ZM16.8125 6.28571C16.6302 6.28571 16.4553 6.36097 16.3264 6.49492C16.1974 6.62888 16.125 6.81056 16.125 7V9.14286C16.125 9.3323 16.1974 9.51398 16.3264 9.64793C16.4553 9.78189 16.6302 9.85714 16.8125 9.85714C16.9948 9.85714 17.1697 9.78189 17.2986 9.64793C17.4276 9.51398 17.5 9.3323 17.5 9.14286V7C17.5 6.81056 17.4276 6.62888 17.2986 6.49492C17.1697 6.36097 16.9948 6.28571 16.8125 6.28571Z" fill="black" fill-opacity="0.26"/>
<path fill-rule="evenodd" clip-rule="evenodd" d="M13.3544 18.36C13.5764 19.7171 13.8906 20.93 14.2963 22H3.0625C2.51549 22 1.99089 21.7742 1.60409 21.3724C1.2173 20.9705 1 20.4255 1 19.8571L1 4.14286C1 3.57454 1.2173 3.02949 1.60409 2.62763C1.99089 2.22576 2.51549 2 3.0625 2H12.4414C11.4926 4.44286 10.0131 8.33071 9.60406 11.8279C9.58062 12.0285 9.59842 12.232 9.65629 12.425C9.71416 12.6179 9.81078 12.7959 9.93976 12.9472C10.0687 13.0985 10.2272 13.2197 10.4045 13.3026C10.5819 13.3856 10.7742 13.4285 10.9688 13.4286H12.9522C12.9714 14.6821 13.0409 15.8536 13.1619 16.945C12.7757 16.9827 12.3879 17.001 12 17C9.23969 17 7.402 16.1514 6.3955 14.4786C6.34765 14.399 6.28519 14.3301 6.21168 14.2756C6.13817 14.2211 6.05506 14.1822 5.96709 14.1611C5.87912 14.1401 5.78801 14.1372 5.69897 14.1527C5.60992 14.1682 5.52469 14.2017 5.44812 14.2514C5.37156 14.3011 5.30518 14.366 5.25276 14.4424C5.20034 14.5188 5.16291 14.6051 5.1426 14.6965C5.1223 14.7879 5.11953 14.8826 5.13444 14.9751C5.14935 15.0676 5.18165 15.1562 5.2295 15.2357C6.51512 17.3721 8.80312 18.4286 12 18.4286C12.4716 18.4286 12.9233 18.4057 13.3544 18.36ZM7.1875 6.28571C7.00516 6.28571 6.8303 6.36097 6.70136 6.49492C6.57243 6.62888 6.5 6.81056 6.5 7V9.14286C6.5 9.3323 6.57243 9.51398 6.70136 9.64793C6.8303 9.78189 7.00516 9.85714 7.1875 9.85714C7.36984 9.85714 7.5447 9.78189 7.67364 9.64793C7.80257 9.51398 7.875 9.3323 7.875 9.14286V7C7.875 6.81056 7.80257 6.62888 7.67364 6.49492C7.5447 6.36097 7.36984 6.28571 7.1875 6.28571Z" fill="black" fill-opacity="0.26"/>
</g>
<defs>
<clipPath id="clip0_8493_206717">
<rect width="22" height="20" fill="white" transform="translate(1 2)"/>
</clipPath>
</defs>
</svg>
